<?xml version="1.0" encoding="UTF-8"?>
<svg width="18px" height="18px" viewBox="0 0 18 18" version="1.1" xmlns="http://www.w3.org/2000/svg" xmlns:xlink="http://www.w3.org/1999/xlink">
    <title>icon_home_sidebar_ applet</title>
    <g id="1首页√√" stroke="none" stroke-width="1" fill="none" fill-rule="evenodd">
        <g id="1.1首页-默认" transform="translate(-30.000000, -614.000000)" fill="#767E98" fill-rule="nonzero">
            <g id="营销" transform="translate(30.000000, 433.000000)">
                <g id="小程序" transform="translate(0.000000, 181.000000)">
                    <path d="M9,2 C10.8565154,2 12.6369928,2.73749788 13.9497475,4.05025253 C15.2625021,5.36300718 16,7.14348457 16,9 C16,12.8659932 12.8659932,16 9,16 C5.13400675,16 2,12.8659932 2,9 C2,5.13400675 5.13400675,2 9,2 Z M10.6823333,5.14502456 C10.2553518,5.14103921 9.83556775,5.25508174 9.46929704,5.47456954 C8.7924999,5.8398166 8.36117746,6.55382949 8.35241031,7.33400724 L8.35239453,10.6603945 C8.34486573,10.9692356 8.16767249,11.2554127 7.8891966,11.4025693 C7.7071286,11.5044123 7.50803397,11.5565736 7.30547303,11.5570006 C6.72281043,11.557 6.25819727,11.1453561 6.25819727,10.6603945 C6.25751822,10.5145281 6.29715722,10.3725015 6.37266812,10.249067 C6.48925962,10.0668423 6.66191866,9.92421642 6.86409882,9.841965 L7.00627805,9.79173724 C7.2428019,9.79316045 7.45801142,9.67002841 7.57454031,9.46910246 C7.69106921,9.26817651 7.69106921,9.02023169 7.57454031,8.81930574 C7.45801142,8.61837979 7.2428019,8.49524775 7.01053403,8.49660977 C6.86892652,8.49954202 6.732227,8.52242023 6.60095245,8.56457898 C6.05353348,8.72020828 5.57668509,9.07909883 5.27107419,9.5690926 C5.07123915,9.89831542 4.96531935,10.2726068 4.96300459,10.6546827 C4.96300459,11.8703398 6.02298146,12.848 7.313,12.848 C7.73610022,12.8520658 8.15522247,12.7444612 8.5261301,12.5359168 C9.20859934,12.1677761 9.63957958,11.4539295 9.64759227,10.6741743 L9.64760547,7.33260547 C9.65534773,7.02369848 9.83299403,6.7374655 10.1118932,6.59059863 C10.2942796,6.48858766 10.4933742,6.43642642 10.6959352,6.43599944 C11.2712836,6.436 11.7348027,6.84852075 11.7348027,7.33260547 C11.7354818,7.47847193 11.6958428,7.62049855 11.6203319,7.74393301 C11.50612,7.93028528 11.3345563,8.07308716 11.1331237,8.15214859 L11.0088997,8.19177508 L10.9830553,8.20104689 C10.6233596,8.20329017 10.335726,8.4926154 10.335726,8.8487959 C10.335726,9.2049764 10.6233596,9.49430163 10.979534,9.49639023 C11.1237398,9.4941101 11.2613009,9.47108769 11.3931583,9.42806144 C11.9394617,9.27279311 12.4163109,8.91390592 12.721924,8.42392405 C12.9217608,8.09469825 13.0276806,7.72040684 13.0299954,7.33833098 C13.0299954,6.17332629 12.0565101,5.22689855 10.8399942,5.15005215 L10.6823333,5.14502456 Z" id="icon_home_sidebar_-applet"></path>
                </g>
            </g>
        </g>
    </g>
</svg>