<?xml version="1.0" encoding="UTF-8"?>
<svg width="18px" height="18px" viewBox="0 0 18 18" version="1.1" xmlns="http://www.w3.org/2000/svg" xmlns:xlink="http://www.w3.org/1999/xlink">
    <title>icon_home_sidebar_ message</title>
    <g id="1首页√√" stroke="none" stroke-width="1" fill="none" fill-rule="evenodd">
        <g id="1.1首页-默认" transform="translate(-30.000000, -522.000000)">
            <g id="营销" transform="translate(30.000000, 433.000000)">
                <g id="短信" transform="translate(0.000000, 89.000000)">
                    <g id="编组" transform="translate(1.000000, 3.000000)" fill="#767E98">
                        <path d="M1.7271897,13 C1.25892318,13 0.854039396,12.8260468 0.512468279,12.4780903 C0.170797069,12.130184 0,11.7284949 0,11.2730229 L0,1.74600955 C0,1.29053251 0.170797069,0.88561437 0.512468279,0.531405783 C0.854039396,0.177130909 1.25892318,0 1.7271897,0 L14.2539096,0 C14.7219859,0 15.1301077,0.177130909 15.4780746,0.531405783 C15.8260416,0.88561437 16,1.29053251 16,1.74600955 L16,11.2730229 C16,11.7284949 15.8260416,12.130184 15.4780746,12.4780903 C15.1301077,12.8260468 14.7219859,13 14.2539096,13 L1.7271897,13 Z M7.99045456,7.21168884 C8.0664738,7.21168884 8.13908994,7.20214753 8.20880344,7.18321556 C8.2783668,7.16418316 8.36374456,7.12315552 8.46503683,7.05983135 L14.0071348,3.35915384 C14.0704425,3.3211493 14.1273443,3.26105913 14.1780405,3.17881304 C14.2285365,3.09656192 14.2539096,2.99214986 14.2539096,2.86567226 C14.2539096,2.67590564 14.1526173,2.50824976 13.9501329,2.36276486 C13.7477486,2.21726993 13.5515699,2.2204286 13.361797,2.37224591 L7.99045456,5.88318694 L2.65712673,2.37224591 C2.45473238,2.24575325 2.24910508,2.2394359 2.04042,2.35327377 C1.83161982,2.46712671 1.7271897,2.63794127 1.7271897,2.86567226 C1.7271897,2.97951013 1.75563061,3.07760987 1.81262752,3.15985596 C1.86952434,3.24206188 1.92956403,3.30849953 1.99296678,3.35915384 L7.51597238,7.05983135 C7.61726464,7.12315552 7.70259236,7.16418316 7.77230586,7.18321556 C7.84181917,7.20214753 7.91453541,7.21168884 7.99045456,7.21168884 Z" id="形状"></path>
                    </g>
                    <path d="M8.05859375,8.0390625 L8.46875,8.44921875 L8.05859375,8.0390625 Z M8.44921875,8.4296875 L8.05859375,8.0390625 L8.44921875,8.4296875 Z M8,8.48828125 C8.0390625,8.48828125 8.0390625,8.48828125 8,8.48828125 C8.1953125,8.33203125 8.33203125,8.1953125 8.48828125,8 L8,8.48828125 L8,8.48828125 Z" id="形状" fill="#FFFFFF" fill-rule="nonzero"></path>
                    <path d="M7.95,9.05 C7.98461538,9.018 8.01538462,8.986 8.05,8.954 L8.04615385,8.95 L7.95,9.05 L7.95,9.05 Z" id="路径" fill="#FFFFFF" fill-rule="nonzero"></path>
                    <path d="M7.99171573,8.995 L8.00171573,9.005 C8.01171573,8.995 8.01171573,8.995 7.99171573,8.995 Z" id="路径" fill="#FFFFFF" fill-rule="nonzero"></path>
                </g>
            </g>
        </g>
    </g>
</svg>