<?xml version="1.0" encoding="UTF-8"?>
<svg width="18px" height="18px" viewBox="0 0 18 18" version="1.1" xmlns="http://www.w3.org/2000/svg" xmlns:xlink="http://www.w3.org/1999/xlink">
    <title>icon_home_sidebar_ salesclerk</title>
    <g id="1首页√√" stroke="none" stroke-width="1" fill="none" fill-rule="evenodd">
        <g id="1.1首页-默认" transform="translate(-30.000000, -377.000000)" fill="#767E98">
            <g id="管理" transform="translate(30.000000, 196.000000)">
                <g id="店员管理" transform="translate(0.000000, 181.000000)">
                    <path d="M13.0830323,11.625 C12.0876774,13.6388125 9,13.6668125 9,13.6668125 C9,13.6668125 5.91232258,13.6388125 4.91651613,11.625 L4.91651613,11.041375 C4.91651613,11.041375 6.65341935,9.28875 9,9.29180849 C11.3465806,9.28875 13.0830323,11.041375 13.0830323,11.041375 L13.0830323,11.625 Z M9,4.041375 C10.1272258,4.041375 11.0412903,4.95575 11.0412903,6.0831875 C11.0412903,7.2110625 10.1272258,8.125 9,8.125 C7.87232258,8.125 6.95825806,7.2110625 6.95825806,6.0831875 C6.95825806,4.95575 7.87232258,4.041375 9,4.041375 L9,4.041375 Z M9,2 C5.13374194,2 2,5.1338125 2,9 C2,12.86575 5.13374194,16 9,16 C12.8662581,16 16,12.86575 16,9 C16,5.1338125 12.8662581,2 9,2 L9,2 Z" id="icon_-salesclerk"></path>
                </g>
            </g>
        </g>
    </g>
</svg>