<?xml version="1.0" encoding="UTF-8"?>
<svg width="18px" height="18px" viewBox="0 0 18 18" version="1.1" xmlns="http://www.w3.org/2000/svg" xmlns:xlink="http://www.w3.org/1999/xlink">
    <title>icon_home_sidebar_ set</title>
    <g id="1首页√√" stroke="none" stroke-width="1" fill="none" fill-rule="evenodd">
        <g id="1.1首页-默认" transform="translate(-30.000000, -755.000000)" fill="#767E98">
            <g id="分析" transform="translate(30.000000, 670.000000)">
                <g id="系统设置" transform="translate(0.000000, 85.000000)">
                    <path d="M11.2679492,2.07179677 C12.339746,2.07179677 13.330127,2.64359354 13.8660254,3.57179677 L16.1339746,7.5 C16.669873,8.42820323 16.669873,9.57179677 16.1339746,10.5 L13.8660254,14.4282032 C13.330127,15.3564065 12.339746,15.9282032 11.2679492,15.9282032 L6.73205081,15.9282032 C5.66025404,15.9282032 4.66987298,15.3564065 4.1339746,14.4282032 L1.8660254,10.5 C1.33012702,9.57179677 1.33012702,8.42820323 1.8660254,7.5 L4.1339746,3.57179677 C4.66987298,2.64359354 5.66025404,2.07179677 6.73205081,2.07179677 L11.2679492,2.07179677 Z M9,7 C7.8954305,7 7,7.8954305 7,9 C7,10.1045695 7.8954305,11 9,11 C10.1045695,11 11,10.1045695 11,9 C11,7.8954305 10.1045695,7 9,7 Z" id="icon_home_sidebar_-set"></path>
                </g>
            </g>
        </g>
    </g>
</svg>