<?xml version="1.0" encoding="UTF-8"?>
<svg width="18px" height="18px" viewBox="0 0 18 18" version="1.1" xmlns="http://www.w3.org/2000/svg" xmlns:xlink="http://www.w3.org/1999/xlink">
    <title>icon_home_sidebar_expend</title>
    <g id="1首页√√" stroke="none" stroke-width="1" fill="none" fill-rule="evenodd">
        <g id="1.1首页-默认" transform="translate(-30.000000, -285.000000)" fill="#767E98">
            <g id="管理" transform="translate(30.000000, 196.000000)">
                <g id="支出管理" transform="translate(0.000000, 89.000000)">
                    <path d="M13,2 C14.1045695,2 15,2.8954305 15,4 L15,14.6149003 C15,14.7218482 14.9828439,14.8281037 14.9491856,14.929617 C14.7753724,15.4538378 14.209504,15.7378992 13.6852833,15.564086 L9.28440331,14.1049083 C9.07902283,14.0368113 8.85709554,14.0371664 8.65193402,14.1059202 L4.31775257,15.5583939 C4.21532943,15.592718 4.1080215,15.6102202 4,15.6102202 C3.44771525,15.6102202 3,15.162505 3,14.6102202 L3,4 C3,2.8954305 3.8954305,2 5,2 L13,2 Z M8.00145985,5 L6,5 L7.57226277,8.01773533 L6.23211679,8.01773533 L6.23211679,9.07298772 L8.10656934,9.07298772 L8.10656934,9.65075034 L6.23211679,9.65075034 L6.23211679,10.7203274 L8.10656934,10.7203274 L8.10656934,12 L9.92846715,12 L9.92846715,10.7203274 L11.7722628,10.7203274 L11.7722628,9.65075034 L9.92846715,9.65075034 L9.92846715,9.07298772 L11.7722628,9.07298772 L11.7722628,8.01773533 L10.4715328,8.01773533 L12,5 L9.99416058,5 L9.00437956,7.37789905 L8.00145985,5 Z" id="icon_home_sidebar_expend"></path>
                </g>
            </g>
        </g>
    </g>
</svg>