<?xml version="1.0" encoding="UTF-8"?>
<svg width="18px" height="18px" viewBox="0 0 18 18" version="1.1" xmlns="http://www.w3.org/2000/svg" xmlns:xlink="http://www.w3.org/1999/xlink">
    <title>icon_home_sidebar_ marketing</title>
    <g id="1首页√√" stroke="none" stroke-width="1" fill="none" fill-rule="evenodd">
        <g id="1.1首页-默认" transform="translate(-30.000000, -476.000000)" fill="#767E98">
            <g id="营销" transform="translate(30.000000, 433.000000)">
                <g id="营销活动" transform="translate(0.000000, 43.000000)">
                    <path d="M9.53105873,1.79937191 L10.6202422,1.70035523 C10.9158033,1.67348605 11.2080297,1.77928662 11.4178847,1.98914166 L17.4506547,8.02191159 C17.841179,8.41243588 17.841179,9.04560086 17.4506547,9.43612515 L11.0866936,15.8000862 C10.6961694,16.1906105 10.0630044,16.1906105 9.67248009,15.8000862 L15.8950198,9.57754651 C16.2855441,9.18702222 16.2855441,8.55385724 15.8950198,8.16333295 L9.53105873,1.79937191 Z M1.74170726,1.9682629 L7.81639734,1.67899195 C8.09782342,1.66559071 8.37184549,1.77152952 8.57106927,1.9707533 L14.6222276,8.02191159 C15.0127518,8.41243588 15.0127518,9.04560086 14.6222276,9.43612515 L8.25826652,15.8000862 C7.86774223,16.1906105 7.23457725,16.1906105 6.84405296,15.8000862 L0.792894676,9.7489279 C0.593670895,9.54970412 0.487732078,9.27568204 0.50113332,8.99425597 L0.790404276,2.91956589 C0.814922961,2.40467351 1.22681488,1.99278159 1.74170726,1.9682629 Z M2.95496566,4.13282429 C2.36917923,4.71861073 2.36917923,5.6683582 2.95496566,6.25414464 C3.5407521,6.83993107 4.49049957,6.83993107 5.07628601,6.25414464 C5.66207245,5.6683582 5.66207245,4.71861073 5.07628601,4.13282429 C4.49049957,3.54703785 3.5407521,3.54703785 2.95496566,4.13282429 Z" id="icon_home_sidebar_-marketing"></path>
                </g>
            </g>
        </g>
    </g>
</svg>