<?xml version="1.0" encoding="UTF-8"?>
<svg viewBox="0 0 30 30" version="1.1" xmlns="http://www.w3.org/2000/svg" xmlns:xlink="http://www.w3.org/1999/xlink">
    <title>icon_home_sidebar_home_big</title>
    <g id="1首页√√" stroke="none" stroke-width="1" fill="none" fill-rule="evenodd">
        <g id="1.4首页-自适应" transform="translate(-16.000000, -29.000000)" fill="#767E98">
            <g id="编组-2" transform="translate(16.000000, 29.000000)">
                <path d="M17.672931,1.89848157 L25.7814438,8.51057689 C27.184961,9.65507642 28,11.3742575 28,13.1902298 L28,23.9817502 C28,26.2009683 26.209139,28 24,28 L19.9999999,27.9990803 C18.8956102,27.9983665 18.0004599,27.1030104 18,25.9986204 L18,21.9726253 L18,21.9726253 C18,20.942274 17.2279196,20.0930746 16.2332423,19.9770172 L16,19.9635004 L14,19.9635004 C12.8954305,19.9635004 12,20.8630162 12,21.9726253 L12,25.9986204 C11.9995401,27.1030104 11.1043898,27.9983665 10.0000001,27.9990803 L6,28 L6,28 C3.790861,28 2,26.2009683 2,23.9817502 L2,13.2426107 C2,11.3967977 2.84191783,9.65274571 4.28470635,8.50978946 L12.675106,1.86303598 C14.1442693,0.699185994 16.2202722,0.713909426 17.672931,1.89848157 Z" id="icon_home_sidebar_home_big"></path>
            </g>
        </g>
    </g>
</svg>