<?xml version="1.0" encoding="UTF-8"?>
<svg width="18px" height="18px" viewBox="0 0 18 18" version="1.1" xmlns="http://www.w3.org/2000/svg" xmlns:xlink="http://www.w3.org/1999/xlink">
    <title>icon_home_sidebar_commodity</title>
    <g id="1首页√√" stroke="none" stroke-width="1" fill="none" fill-rule="evenodd">
        <g id="1.1首页-默认" transform="translate(-30.000000, -331.000000)" fill="#767E98">
            <g id="管理" transform="translate(30.000000, 196.000000)">
                <g id="商品管理" transform="translate(0.000000, 135.000000)">
                    <path d="M10,1.57735027 L14.9282032,4.42264973 C15.5470054,4.77991532 15.9282032,5.44016936 15.9282032,6.15470054 L15.9282032,11.8452995 C15.9282032,12.5598306 15.5470054,13.2200847 14.9282032,13.5773503 L10,16.4226497 C9.38119785,16.7799153 8.61880215,16.7799153 8,16.4226497 L3.07179677,13.5773503 C2.45299462,13.2200847 2.07179677,12.5598306 2.07179677,11.8452995 L2.07179677,6.15470054 C2.07179677,5.44016936 2.45299462,4.77991532 3.07179677,4.42264973 L8,1.57735027 C8.61880215,1.22008468 9.38119785,1.22008468 10,1.57735027 Z M7.49403095,3.72293796 C7.16176009,3.5704114 6.75907602,3.68013875 6.55353399,3.99565141 C6.34799197,4.31116408 6.41035071,4.72384549 6.68414163,4.96614037 L6.7725654,5.03344968 L10.7897874,7.6504855 L10.8374072,7.69079367 C10.8653356,7.72118761 10.8853235,7.75806394 10.8955456,7.79805513 L10.9033263,7.85995711 L10.9033263,9.45221806 L10.9101729,9.55398862 C10.9598353,9.92006418 11.2736305,10.2022181 11.6533263,10.2022181 C12.0330221,10.2022181 12.3468172,9.92006418 12.3964797,9.55398862 L12.4033263,9.45221806 L12.4033263,7.85995711 L12.39599,7.69972003 C12.3522024,7.22283934 12.1144809,6.78425914 11.7388103,6.48726738 L11.6085543,6.39365582 L7.59133226,3.77662001 L7.49403095,3.72293796 Z" id="形状"></path>
                </g>
            </g>
        </g>
    </g>
</svg>