<?xml version="1.0" encoding="UTF-8"?>
<svg width="18px" height="18px" viewBox="0 0 18 18" version="1.1" xmlns="http://www.w3.org/2000/svg" xmlns:xlink="http://www.w3.org/1999/xlink">
    <title>icon_home_sidebar_ vip</title>
    <g id="1首页√√" stroke="none" stroke-width="1" fill="none" fill-rule="evenodd">
        <g id="1.1首页-默认" transform="translate(-30.000000, -568.000000)" fill="#767E98" fill-rule="nonzero">
            <g id="营销" transform="translate(30.000000, 433.000000)">
                <g id="icon_home_sidebar_-vip" transform="translate(0.000000, 135.000000)">
                    <path d="M16.9989526,7 L17,13.0777778 C17.0056706,13.5816993 16.8111594,14.0673329 16.459006,14.427827 C16.1068526,14.7883212 15.6259091,14.9941406 15.1219949,15 L2.89996941,15 C2.39605523,14.9941406 1.91511164,14.7883212 1.56295828,14.427827 C1.21080492,14.0673329 1.01629367,13.5816993 1.02208573,13.0777778 L1.02183245,7 L16.9989526,7 Z M5.40332031,9.70507812 L4.01464844,9.70507812 L5.63769531,14 L7.07617188,14 L8.66992188,9.70507812 L7.32226563,9.70507812 L6.37011719,12.7958984 L5.40332031,9.70507812 Z M10.4892578,9.70507812 L9.15917969,9.70507812 L9.15917969,14 L10.4892578,14 L10.4892578,9.70507812 Z M13.6416016,9.70507812 L11.4355469,9.70507812 L11.4355469,14 L12.7685547,14 L12.7685547,12.40625 L13.4951172,12.40625 C14.0302734,12.40625 14.4282227,12.2841797 14.6889648,12.0400391 C14.949707,11.7958984 15.0800781,11.4570312 15.0800781,11.0234375 C15.0800781,10.6015625 14.9604492,10.2763672 14.7211914,10.0478516 C14.4819336,9.81933594 14.1220703,9.70507812 13.6416016,9.70507812 Z M13.1464844,10.578125 C13.3945313,10.578125 13.5634766,10.625 13.6533203,10.71875 C13.7431641,10.8125 13.7880859,10.9267578 13.7880859,11.0615234 C13.7880859,11.2001953 13.7363281,11.3139648 13.6328125,11.402832 C13.5292969,11.4916992 13.3496094,11.5361328 13.09375,11.5361328 L12.7685547,11.5361328 L12.7685547,10.578125 L13.1464844,10.578125 Z M15.1219949,3 C15.6259091,3.00585936 16.1068526,3.21167883 16.459006,3.57217298 C16.8111594,3.93266713 17.0056706,4.41830073 17,4.92222222 L16.9989526,6 L1.02182224,6 L1.02208573,4.92222222 C1.00983829,3.87712638 1.84386567,3.01826293 2.88885848,3 L15.1219949,3 Z"></path>
                </g>
            </g>
        </g>
    </g>
</svg>