<?xml version="1.0" encoding="UTF-8"?>
<svg width="18px" height="18px" viewBox="0 0 18 18" version="1.1" xmlns="http://www.w3.org/2000/svg" xmlns:xlink="http://www.w3.org/1999/xlink">
    <title>icon_home_sidebar_sell</title>
    <g id="1首页√√" stroke="none" stroke-width="1" fill="none" fill-rule="evenodd">
        <g id="1.1首页-默认" transform="translate(-30.000000, -238.000000)" fill="#767E98">
            <g id="管理" transform="translate(30.000000, 196.000000)">
                <g id="销售管理" transform="translate(0.000000, 41.573233)">
                    <path d="M12.5,2.42676749 C14.4329966,2.42676749 16,3.99377087 16,5.92676749 L16,12.9267675 C16,14.8597641 14.4329966,16.4267675 12.5,16.4267675 L5.5,16.4267675 C3.56700338,16.4267675 2,14.8597641 2,12.9267675 L2,5.92676749 C2,3.99377087 3.56700338,2.42676749 5.5,2.42676749 L12.5,2.42676749 Z M9,5.42676749 C8.48716416,5.42676749 8.06449284,5.81280768 8.00672773,6.31014636 L8,6.42676749 L8,12.4267675 C8,12.9790522 8.44771525,13.4267675 9,13.4267675 C9.51283584,13.4267675 9.93550716,13.0407273 9.99327227,12.5433886 L10,12.4267675 L10,6.42676749 C10,5.87448274 9.55228475,5.42676749 9,5.42676749 Z M5,9.42676749 C4.48716416,9.42676749 4.06449284,9.81280768 4.00672773,10.3101464 L4,10.4267675 L4,12.4267675 C4,12.9790522 4.44771525,13.4267675 5,13.4267675 C5.51283584,13.4267675 5.93550716,13.0407273 5.99327227,12.5433886 L6,12.4267675 L6,10.4267675 C6,9.87448274 5.55228475,9.42676749 5,9.42676749 Z M13,7.42676749 C12.4871642,7.42676749 12.0644928,7.81280768 12.0067277,8.31014636 L12,8.42676749 L12,12.4267675 C12,12.9790522 12.4477153,13.4267675 13,13.4267675 C13.5128358,13.4267675 13.9355072,13.0407273 13.9932723,12.5433886 L14,12.4267675 L14,8.42676749 C14,7.87448274 13.5522847,7.42676749 13,7.42676749 Z" id="形状"></path>
                </g>
            </g>
        </g>
    </g>
</svg>